# Exported from Figuro at https://www.figuro.io

mtllib newscene.mtl
o cylinder9
v 24.845109500265405 -100 43.03299197407192
v -2.4868995751603507e-14 -100 49.690219000530846
v 43.03299197407193 -100 24.845109500265437
v 49.690219000530874 -100 0
v 43.03299197407193 -100 -24.84510950026541
v 24.845109500265405 -100 -43.032991974071905
v -2.4868995751603507e-14 -100 -49.690219000530846
v -24.845109500265433 -100 -43.03299197407193
v -43.03299197407193 -100 -24.845109500265437
v -49.690219000530874 -100 -1.4210854715202004e-14
v -43.03299197407196 -100 24.845109500265394
v -24.845109500265462 -100 43.032991974071905
v -2.4868995751603507e-14 0 -1.4210854715202004e-14
# 13 vertices
vt -9.71445146547012e-17 1.1941024179708237
vt 0.09705120898541174 1.1680976248987185
vt 0.1680976248987185 1.0970512089854119
vt 0.19410241797082373 1
vt 0.1680976248987185 0.9029487910145882
vt 0.09705120898541174 0.8319023751012816
vt -9.71445146547012e-17 0.8058975820291764
vt -0.09705120898541185 0.8319023751012815
vt -0.1680976248987185 0.9029487910145881
vt -0.19410241797082373 1
vt -0.1680976248987186 1.0970512089854116
vt -0.09705120898541196 1.1680976248987185
vt 0.09705120898541174 0.609375
vt -9.71445146547012e-17 0.609375
vt -9.71445146547012e-17 1
vt -9.71445146547012e-17 1
vt -9.71445146547012e-17 0.609375
vt -0.09705120898541196 0.609375
vt -9.71445146547012e-17 1
vt -9.71445146547012e-17 1
vt 5.551115123125783e-17 1
vt 5.551115123125783e-17 1
vt 5.551115123125783e-17 1
vt 5.551115123125783e-17 1
vt 5.551115123125783e-17 1
vt 5.551115123125783e-17 1
vt 5.551115123125783e-17 1
vt 5.551115123125783e-17 1
vt 5.551115123125783e-17 1
vt 5.551115123125783e-17 1
vt 5.551115123125783e-17 1
vt 5.551115123125783e-17 1
vt 0.1680976248987185 0.609375
vt 0.09705120898541174 0.609375
vt -9.71445146547012e-17 1
vt -9.71445146547012e-17 1
vt 0 0.609375
vt -0.09705120898541186 0.609375
vt 5.551115123125783e-17 1
vt 5.551115123125783e-17 1
vt 0.09705120898541175 0.609375
vt 0 0.609375
vt 5.551115123125783e-17 1
vt 5.551115123125783e-17 1
vt -0.09705120898541174 0.609375
vt -0.1680976248987185 0.609375
vt 9.71445146547012e-17 1
vt 9.71445146547012e-17 1
vt 9.71445146547012e-17 0.609375
vt -0.09705120898541174 0.609375
vt 9.71445146547012e-17 1
vt 9.71445146547012e-17 1
vt 0.09705120898541185 0.609375
vt 9.71445146547012e-17 0.609375
vt 9.71445146547012e-17 1
vt 9.71445146547012e-17 1
vt 0.1680976248987185 0.609375
vt 0.09705120898541185 0.609375
vt 9.71445146547012e-17 1
vt 9.71445146547012e-17 1
vt -5.551115123125783e-17 0.609375
vt -0.09705120898541186 0.609375
vt -5.551115123125783e-17 1
vt -5.551115123125783e-17 1
vt 0.0970512089854117 0.609375
vt -5.551115123125783e-17 0.609375
vt -5.551115123125783e-17 1
vt -5.551115123125783e-17 1
vt 0.16809762489871838 0.609375
vt 0.0970512089854117 0.609375
vt -5.551115123125783e-17 1
vt -5.551115123125783e-17 1
# 72 uvs
vn 0.2902714572826803 -0.04486028769374042 0.5027649120006621
vn -1.030921380009074e-16 0.2994653443937621 -5.551115123125783e-17
vn 0.5027649120006615 -0.044860287693740286 0.29027145728268083
vn 0.5805429145653611 -0.04486028769374036 -1.0177044392397268e-16
vn 0.5027649120006616 -0.04486028769374053 -0.29027145728268083
vn 0.29027145728268056 -0.04486028769374064 -0.5027649120006621
vn 2.4054832200211723e-16 -0.04486028769374071 -0.5805429145653614
vn -0.2902714572826804 -0.044860287693740696 -0.502764912000662
vn -0.5027649120006618 -0.044860287693740696 -0.29027145728268083
vn -0.5805429145653612 -0.044860287693740675 -1.7578531223231644e-16
vn -0.502764912000662 -0.04486028769374054 0.2902714572826804
vn -0.2902714572826808 -0.04486028769374053 0.5027649120006618
vn -1.1102230246251565e-16 0.3994242170394361 -5.978123978750843e-17
# 13 normals
usemtl 8c92ac
f 12/12/12 11/11/11 10/10/10 9/9/9 8/8/8 7/7/7 6/6/6 5/5/5 4/4/4 3/3/3 1/2/1 2/1/2 
f 13/72/13 13/71/13 2/70/2 1/69/1 
f 13/72/13 13/71/13 12/70/12 2/69/2 
f 13/32/13 13/31/13 13/30/13 13/29/13 13/28/13 13/27/13 13/26/13 13/25/13 13/72/13 13/71/13 13/70/13 13/69/13 
f 13/72/13 13/71/13 1/70/1 3/69/3 
f 13/72/13 13/71/13 3/70/3 4/69/4 
f 13/72/13 13/71/13 4/70/4 5/69/5 
f 13/72/13 13/71/13 5/70/5 6/69/6 
f 13/72/13 13/71/13 6/70/6 7/69/7 
f 13/72/13 13/71/13 7/70/7 8/69/8 
f 13/72/13 13/71/13 8/70/8 9/69/9 
f 13/72/13 13/71/13 9/70/9 10/69/10 
f 13/72/13 13/71/13 10/70/10 11/69/11 
f 13/72/13 13/71/13 11/70/11 12/69/12 
# 14 polygons